<svg width="24" height="24" viewBox="0 0 24 24" fill="none" xmlns="http://www.w3.org/2000/svg">
<path d="M12 9.99982V18.9998M12 9.99982L15 12.9998M12 9.99982L9.00002 12.9998M17.5 14.9998C19.019 14.9998 20 13.7688 20 12.2498C20 11.6484 19.8028 11.0637 19.4387 10.585C19.0746 10.1064 18.5636 9.76033 17.984 9.59982C17.8948 8.47828 17.43 7.41959 16.6647 6.59491C15.8994 5.77024 14.8783 5.22778 13.7665 5.05525C12.6547 4.88271 11.5173 5.09018 10.538 5.64411C9.55874 6.19804 8.79491 7.06606 8.37002 8.10782C7.47544 7.85984 6.519 7.97739 5.71109 8.4346C4.90318 8.89182 4.30999 9.65124 4.06202 10.5458C3.81404 11.4404 3.93159 12.3968 4.3888 13.2047C4.84601 14.0127 5.60544 14.6058 6.50002 14.8538" stroke="black" stroke-width="2" stroke-linecap="round" stroke-linejoin="round"/>
</svg>
